# xmcd
#
# Track frame offsets: 
#        150
#        10437
#        24912
#        39937
#        51087
#        62950
#        74325
#        87650
#        100287
#        111312
#        123225
#        136537
#        151487
#        163750
#        176175
#        188437
#        200237
#        212650
#        221887
#        233162
#        244375
#        255325
#        270150
#        283000
#
# Disc length: 3899 seconds
#
# Revision: 2
# Processed by: cddbd v1.5.2PL0 Copyright (c) Steve Scherf et al.
# Submitted via: ExactAudioCopy v1.1
#
DISCID=5f0f3918
DTITLE=Xavier Cugat - Bread, Love And Cha-Cha-Cha - Cugat Cavalgade
DYEAR=2000
DGENRE=Pop
TTITLE0=Bread, Love And Cha-Cha-Cha (mono)
TTITLE1=Frenesi (mono)
TTITLE2=Suavecito (Sweet And Tender) (mono)
TTITLE3=Very, Very Satisfied (mono)
TTITLE4=Whatever Lola Wants (Lola Gets) (mono)
TTITLE5=Penthouse Mambo (mono)
TTITLE6=La Paloma (mono)
TTITLE7=Maria La O (Maria My Own) (mono)
TTITLE8=Coco Seco (Dry Coconuts) (mono)
TTITLE9=The Banana Boat Song (mono)
TTITLE10=Mi Musica Es Para Ti (mono)
TTITLE11=April In Portugal (mono)
TTITLE12=Brazil (Aquarela Do Brasil) (1958) (stereo)
TTITLE13=Bésame Mucho (1958) (stereo)
TTITLE14=What A Difference A Day Made (stereo)
TTITLE15=My Shawl (Ombo) (1958) (stereo)
TTITLE16=La Cumparsita (The Masked One) (1958) (stereo)
TTITLE17=Tico-Tico (1958) (stereo)
TTITLE18=Orchids In The Moonlight (stereo)
TTITLE19=Yours (stereo)
TTITLE20=Miami Beach Rhumba (1958) (stereo)
TTITLE21=Jalousie (Jealousy) (1958) (stereo)
TTITLE22=Guitara Romana (stereo)
TTITLE23=Dengoza (stereo)
EXTD=YEAR: 1957
EXTT0=
EXTT1=
EXTT2=
EXTT3=
EXTT4=
EXTT5=
EXTT6=
EXTT7=
EXTT8=
EXTT9=
EXTT10=
EXTT11=
EXTT12=
EXTT13=
EXTT14=
EXTT15=
EXTT16=
EXTT17=
EXTT18=
EXTT19=
EXTT20=
EXTT21=
EXTT22=
EXTT23=
PLAYORDER=
